<?xml version="1.0" encoding="UTF-8" standalone="no"?>
<!-- Created with Inkscape (http://www.inkscape.org/) -->

<svg
   xmlns:dc="http://purl.org/dc/elements/1.1/"
   xmlns:cc="http://creativecommons.org/ns#"
   xmlns:rdf="http://www.w3.org/1999/02/22-rdf-syntax-ns#"
   xmlns:svg="http://www.w3.org/2000/svg"
   xmlns="http://www.w3.org/2000/svg"
   xmlns:sodipodi="http://sodipodi.sourceforge.net/DTD/sodipodi-0.dtd"
   xmlns:inkscape="http://www.inkscape.org/namespaces/inkscape"
   width="403.19897mm"
   height="496mm"
   viewBox="0 0 403.19897 496"
   version="1.1"
   id="svg8"
   inkscape:version="0.92.4 (5da689c313, 2019-01-14)"
   sodipodi:docname="braking bad kassi.svg">
  <defs
     id="defs2" />
  <sodipodi:namedview
     id="base"
     pagecolor="#ffffff"
     bordercolor="#666666"
     borderopacity="1.0"
     inkscape:pageopacity="0.0"
     inkscape:pageshadow="2"
     inkscape:zoom="0.46362847"
     inkscape:cx="661.85008"
     inkscape:cy="393.38752"
     inkscape:document-units="mm"
     inkscape:current-layer="layer1"
     showgrid="false"
     inkscape:window-width="1920"
     inkscape:window-height="986"
     inkscape:window-x="-11"
     inkscape:window-y="-11"
     inkscape:window-maximized="1" />
  <metadata
     id="metadata5">
    <rdf:RDF>
      <cc:Work
         rdf:about="">
        <dc:format>image/svg+xml</dc:format>
        <dc:type
           rdf:resource="http://purl.org/dc/dcmitype/StillImage" />
        <dc:title></dc:title>
      </cc:Work>
    </rdf:RDF>
  </metadata>
  <g
     inkscape:label="Layer 1"
     inkscape:groupmode="layer"
     id="layer1"
     transform="translate(-0.5,-0.5)">
    <path
       id="path995"
       inkscape:label="part"
       style="fill:none;stroke:#000000;stroke-width:1"
       d="m 48.2,228.5 h 12.655 v -3.1 h 10.09 v 3.1 h 12.61 v -3.1 h 10.09 v 3.1 h 12.61 v -3.1 h 10.09 v 3.1 h 12.61 v -3.1 h 10.09 v 3.1 h 12.61 v -3.1 h 10.09 v 3.1 H 174.4"
       inkscape:connector-curvature="0" />
    <path
       id="path997"
       inkscape:label="part"
       style="fill:none;stroke:#000000;stroke-width:1"
       d="m 109.75,243.545 v 9.91 h 3.1 v -9.91 h -3.1"
       inkscape:connector-curvature="0" />
    <path
       id="path999"
       inkscape:label="part"
       style="fill:none;stroke:#000000;stroke-width:1"
       d="m 174.4,228.5 v 15.045 h -3.1 v 9.91 h 3.1 V 268.5"
       inkscape:connector-curvature="0" />
    <path
       id="path1001"
       inkscape:label="part"
       style="fill:none;stroke:#000000;stroke-width:1"
       d="m 174.4,268.5 h -12.655 v 3.1 h -10.09 v -3.1 h -12.61 v 3.1 h -10.09 v -3.1 h -12.61 v 3.1 h -10.09 v -3.1 h -12.61 v 3.1 h -10.09 v -3.1 h -12.61 v 3.1 h -10.09 v -3.1 H 48.2"
       inkscape:connector-curvature="0" />
    <path
       id="path1003"
       inkscape:label="part"
       style="fill:none;stroke:#000000;stroke-width:1"
       d="m 48.2,268.5 v -15.045 h 3.1 v -9.91 H 48.2 V 228.5"
       inkscape:connector-curvature="0" />
    <path
       id="path1005"
       inkscape:label="part"
       style="fill:none;stroke:#000000;stroke-width:1"
       d="M 4.0999999,51.3 H 19.055 v -3.1 h 10.09 v 3.1 H 44.1"
       inkscape:connector-curvature="0" />
    <path
       id="path1007"
       inkscape:label="part"
       style="fill:none;stroke:#000000;stroke-width:1"
       d="m 44.1,51.3 v 7.543889 h 3.1 v 10.09 h -3.1 v 10.598889 h 3.1 v 10.09 h -3.1 v 10.598892 h 3.1 v 10.09 h -3.1 v 10.59889 h 3.1 v 10.09 h -3.1 v 10.59888 h 3.1 v 10.09 h -3.1 v 10.59889 h 3.1 v 10.09 h -3.1 v 10.59889 h 3.1 v 10.09 h -3.1 v 10.59889 h 3.1 v 10.09 H 44.1 V 221.3"
       inkscape:connector-curvature="0" />
    <path
       id="path1009"
       inkscape:label="part"
       style="fill:none;stroke:#000000;stroke-width:1"
       d="M 44.1,221.3 H 29.145 v 3.1 h -10.09 v -3.1 H 4.0999999"
       inkscape:connector-curvature="0" />
    <path
       id="path1011"
       inkscape:label="part"
       style="fill:none;stroke:#000000;stroke-width:1"
       d="m 4.0999999,221.3 v -7.54389 H 1 v -10.09 H 4.0999999 V 193.06722 H 1 v -10.09 H 4.0999999 V 172.37833 H 1 v -10.09 H 4.0999999 V 151.68944 H 1 v -10.09 H 4.0999999 V 131.00056 H 1 v -10.09 H 4.0999999 V 110.31167 H 1 v -10.09 H 4.0999999 V 89.622778 H 1 v -10.09 H 4.0999999 V 68.933889 H 1 v -10.09 H 4.0999999 V 51.3"
       inkscape:connector-curvature="0" />
    <path
       id="path1013"
       inkscape:label="part"
       style="fill:none;stroke:#000000;stroke-width:1"
       d="M 3.0999999,322.9 H 18.055 v -3.1 h 10.09 v 3.1 h 9.134167"
       inkscape:connector-curvature="0"
       sodipodi:nodetypes="cccccc" />
    <path
       id="path1015"
       inkscape:label="part"
       style="fill:none;stroke:#000000;stroke-width:1"
       d="m 37.279167,322.9 -18.437828,16.63105 v 0 l 1.069078,15.96993 v 0 l -0.534539,14.8752 v 0 0 0 0 0 0 l 10.690781,8.55263 -12.294398,7.48354 1.603617,16.25445 v 0 0 l -2.672695,14.74271 v 0 c 3.385414,5.18293 8.908984,10.75195 12.294398,13.36348 l -11.22532,4.71896 v 0 0 l 4.217216,13.83177 v 0 l -1.603617,11.66797 v 0 0 0 0 l -2.07906,16.94712 14.432554,7.4173 v 0 L 37.279167,492.9"
       inkscape:connector-curvature="0"
       sodipodi:nodetypes="cccccccccccccccccccccccccccccccccc" />
    <path
       id="path1017"
       inkscape:label="part"
       style="fill:none;stroke:#000000;stroke-width:1"
       d="M 37.279167,492.9 H 28.145 v 3.1 h -10.09 v -3.1 H 3.0999999"
       inkscape:connector-curvature="0"
       sodipodi:nodetypes="cccccc" />
    <path
       id="path1019"
       inkscape:label="part"
       style="fill:none;stroke:#000000;stroke-width:1"
       d="m 3.0999999,492.9 v -7.54389 0 -10.09 0 -10.59889 0 -10.09 0 -10.59889 0 -10.09 0 -10.59889 0 -10.09 0 -10.59889 0 -10.09 0 -10.59888 0 -10.09 0 -10.59889 0 -10.09 0 -10.59889 0 -10.09 0 V 322.9"
       inkscape:connector-curvature="0" />
    <path
       id="path1021"
       inkscape:label="part"
       style="fill:none;stroke:#000000;stroke-width:1"
       d="m 48.2,48.2 h 12.745 v 3.1 h 9.91 v -3.1 h 12.79 v 3.1 h 9.91 v -3.1 h 12.79 v 3.1 h 9.91 v -3.1 h 12.79 v 3.1 h 9.91 v -3.1 h 12.79 v 3.1 h 9.91 V 48.2 H 174.4"
       inkscape:connector-curvature="0" />
    <path
       id="path1023"
       inkscape:label="part"
       style="fill:none;stroke:#000000;stroke-width:1"
       d="m 174.4,48.2 v 10.733889 h -3.1 v 9.91 h 3.1 v 10.778889 h -3.1 v 9.91 h 3.1 v 10.778892 h -3.1 v 9.91 h 3.1 v 10.77889 h -3.1 v 9.91 h 3.1 v 10.77888 h -3.1 v 9.91 h 3.1 v 10.77889 h -3.1 v 9.91 h 3.1 v 10.77889 h -3.1 v 9.91 h 3.1 v 10.77889 h -3.1 v 9.91 h 3.1 V 224.4"
       inkscape:connector-curvature="0" />
    <path
       id="path1025"
       inkscape:label="part"
       style="fill:none;stroke:#000000;stroke-width:1"
       d="m 174.4,224.4 h -12.745 v -3.1 h -9.91 v 3.1 h -12.79 v -3.1 h -9.91 v 3.1 h -12.79 v -3.1 h -9.91 v 3.1 h -12.79 v -3.1 h -9.91 v 3.1 h -12.79 v -3.1 h -9.91 v 3.1 H 48.2"
       inkscape:connector-curvature="0" />
    <path
       id="path1027"
       inkscape:label="part"
       style="fill:none;stroke:#000000;stroke-width:1"
       d="m 48.2,224.4 v -10.73389 h 3.1 v -9.91 h -3.1 v -10.77889 h 3.1 v -9.91 h -3.1 v -10.77889 h 3.1 v -9.91 h -3.1 v -10.77889 h 3.1 v -9.91 h -3.1 v -10.77888 h 3.1 v -9.91 h -3.1 v -10.77889 h 3.1 v -9.91 H 48.2 V 89.532778 h 3.1 v -9.91 H 48.2 V 68.843889 h 3.1 v -9.91 H 48.2 V 48.2"
       inkscape:connector-curvature="0" />
    <path
       id="path1029"
       inkscape:label="part"
       style="fill:none;stroke:#000000;stroke-width:1"
       d="m 178.5,51.3 h 14.955 v -3.1 h 10.09 v 3.1 H 218.5"
       inkscape:connector-curvature="0" />
    <path
       id="path1031"
       inkscape:label="part"
       style="fill:none;stroke:#000000;stroke-width:1"
       d="m 218.5,51.3 v 7.543889 h 3.1 v 10.09 h -3.1 v 10.598889 h 3.1 v 10.09 h -3.1 v 10.598892 h 3.1 v 10.09 h -3.1 v 10.59889 h 3.1 v 10.09 h -3.1 v 10.59888 h 3.1 v 10.09 h -3.1 v 10.59889 h 3.1 v 10.09 h -3.1 v 10.59889 h 3.1 v 10.09 h -3.1 v 10.59889 h 3.1 v 10.09 h -3.1 V 221.3"
       inkscape:connector-curvature="0" />
    <path
       id="path1033"
       inkscape:label="part"
       style="fill:none;stroke:#000000;stroke-width:1"
       d="m 218.5,221.3 h -14.955 v 3.1 h -10.09 v -3.1 H 178.5"
       inkscape:connector-curvature="0" />
    <path
       id="path1035"
       inkscape:label="part"
       style="fill:none;stroke:#000000;stroke-width:1"
       d="m 178.5,221.3 v -7.54389 h -3.1 v -10.09 h 3.1 v -10.59889 h -3.1 v -10.09 h 3.1 v -10.59889 h -3.1 v -10.09 h 3.1 v -10.59889 h -3.1 v -10.09 h 3.1 v -10.59888 h -3.1 v -10.09 h 3.1 v -10.59889 h -3.1 v -10.09 h 3.1 V 89.622778 h -3.1 v -10.09 h 3.1 V 68.933889 h -3.1 v -10.09 h 3.1 V 51.3"
       inkscape:connector-curvature="0" />
    <path
       id="path1037"
       inkscape:label="part"
       style="fill:none;stroke:#000000;stroke-width:1"
       d="m 403.19896,81.425718 v 12.744928 h -3.1 v 9.909964 h 3.1 v 12.79 h -3.1 v 9.91 h 3.1 v 12.79 h -3.1 v 9.91 h 3.1 v 12.79 h -3.1 v 9.91 h 3.1 v 12.79 h -3.1 v 9.91 h 3.1 v 12.745"
       inkscape:connector-curvature="0" />
    <path
       id="path1039"
       inkscape:label="part"
       style="fill:none;stroke:#000000;stroke-width:1"
       d="m 403.19896,207.62561 h -10.73389 v -3.1 h -9.91 v 3.1 h -10.77889 v -3.1 h -9.91 v 6.80417 c -4.29541,1.58115 -7.90885,1.62595 -10.77889,0 v -6.80417 h -9.91 v 3.1 H 330.3984 v -3.1 h -9.91 v 3.1 h -10.77888 v -3.1 h -9.91 v 3.1 h -10.77889 v -3.1 h -9.91 v 6.275 c -3.26364,1.81128 -6.80337,2.10409 -10.77889,0 v -6.275 h -9.91 v 3.1 h -10.77889 v -3.1 h -9.91 v 3.1 h -10.73389"
       inkscape:connector-curvature="0"
       sodipodi:nodetypes="cccccccccccccccccccccccccccccccccc" />
    <path
       id="path1041"
       inkscape:label="part"
       style="fill:none;stroke:#000000;stroke-width:1"
       d="m 226.99896,207.62561 v -12.745 h 3.1 v -9.91 h -3.1 v -12.79 h 3.1 v -9.91 h -3.1 v -12.79 h 3.1 v -9.91 h -3.1 v -12.79 h 3.1 v -9.91 h -3.1 v -12.79 h 3.1 v -9.909964 h -3.1 V 81.425718"
       inkscape:connector-curvature="0" />
    <path
       id="path1043"
       inkscape:label="part"
       style="fill:none;stroke:#000000;stroke-width:1"
       d="m 226.99896,81.425718 h 10.73389 V 84.5257 h 9.91 v -3.099982 h 10.77889 V 84.5257 h 9.91 v -3.099982 h 10.77889 V 84.5257 h 9.91 v -3.099982 h 10.77888 V 84.5257 h 9.91 V 81.425718 H 320.4884 V 84.5257 h 9.91 v -3.099982 h 10.77889 V 84.5257 h 9.91 v -3.099982 h 10.77889 V 84.5257 h 9.91 v -3.099982 h 10.77889 V 84.5257 h 9.91 v -3.099982 h 10.73389"
       inkscape:connector-curvature="0" />
    <path
       id="path1045"
       inkscape:label="part"
       style="fill:none;stroke:#000000;stroke-width:1"
       d="M 48.2,4.0999999 H 60.855 V 1 h 10.09 v 3.0999999 h 12.61 V 1 h 10.09 v 3.0999999 h 12.61 V 1 h 10.09 v 3.0999999 h 12.61 V 1 h 10.09 v 3.0999999 h 12.61 V 1 h 10.09 V 4.0999999 H 174.4"
       inkscape:connector-curvature="0" />
    <path
       id="path1047"
       inkscape:label="part"
       style="fill:none;stroke:#000000;stroke-width:1"
       d="m 109.75,19.145 v 9.91 h 3.1 v -9.91 h -3.1"
       inkscape:connector-curvature="0" />
    <path
       id="path1049"
       inkscape:label="part"
       style="fill:none;stroke:#000000;stroke-width:1"
       d="M 174.4,4.0999999 V 19.145 h -3.1 v 9.91 h 3.1 V 44.1"
       inkscape:connector-curvature="0" />
    <path
       id="path1051"
       inkscape:label="part"
       style="fill:none;stroke:#000000;stroke-width:1"
       d="m 174.4,44.1 h -12.655 v 3.1 h -10.09 v -3.1 h -12.61 v 3.1 h -10.09 v -3.1 h -12.61 v 3.1 h -10.09 v -3.1 h -12.61 v 3.1 h -10.09 v -3.1 h -12.61 v 3.1 H 60.855 V 44.1 H 48.2"
       inkscape:connector-curvature="0" />
    <path
       id="path1053"
       inkscape:label="part"
       style="fill:none;stroke:#000000;stroke-width:1"
       d="M 48.2,44.1 V 29.055 h 3.1 v -9.91 H 48.2 V 4.0999999"
       inkscape:connector-curvature="0" />
    <g
       id="g4816" />
    <path
       style="fill:#000000;stroke-width:0.36666492"
       d="m 287.46654,172.4204 c 0.0343,-0.72324 0.62355,-1.94105 0.64396,-1.33632 0.0115,0.31498 -0.13439,0.83043 -0.32194,1.14542 -0.18758,0.31498 -0.33282,0.40088 -0.32197,0.1909 z m 0.87739,-3.24536 c 0.11094,-0.73497 0.27906,-1.63488 0.37399,-1.99979 0.14582,-0.56251 -0.005,-0.63015 -0.99456,-0.44455 -0.64172,0.12036 -1.60856,0.36935 -2.14856,0.55322 -0.96476,0.32853 -0.97786,0.31207 -0.75912,-0.95231 0.18185,-1.05226 0.10408,-1.31696 -0.42718,-1.45334 -0.61782,-0.15863 -0.61617,-0.18222 0.0344,-0.48541 0.45464,-0.21191 0.73192,-0.15992 0.82881,0.15516 0.10865,0.35275 0.30136,0.32105 0.75501,-0.1241 0.3351,-0.32885 1.22981,-0.65647 1.9882,-0.72804 0.75839,-0.0716 1.65613,-0.26092 1.99507,-0.42079 0.33909,-0.15986 0.8497,-0.19351 1.13512,-0.0747 0.28535,0.11876 0.64189,-0.0117 0.79224,-0.28924 0.37285,-0.68851 2.28414,-1.68871 2.82631,-1.47888 0.24187,0.0937 0.44032,-0.0105 0.44032,-0.22987 0,-0.22011 0.30593,-0.57771 0.67982,-0.79467 0.76692,-0.44505 1.78503,0.34874 1.78503,1.3917 0,0.42258 -0.18643,0.33794 -0.66386,-0.30125 -0.56956,-0.76212 -0.74502,-0.81598 -1.23246,-0.37735 -0.31509,0.28361 -0.58455,1.1289 -0.6045,1.89664 l -0.0344,1.38503 -0.36714,-1.24086 c -0.3997,-1.35075 -1.17359,-1.74651 -0.85816,-0.43883 0.23959,0.9942 -0.41287,2.63421 -1.04814,2.63421 -0.25963,0 -0.47177,-0.17181 -0.47177,-0.3818 0,-0.20999 0.23787,-0.38181 0.52838,-0.38181 0.59759,0 0.72316,-1.35153 0.16068,-1.72847 -0.5444,-0.36475 -1.39308,0.55402 -1.39308,1.50795 0,0.45727 -0.19043,1.03758 -0.42259,1.28958 -0.51295,0.55622 -1.46851,0.61407 -1.15845,0.0702 0.12181,-0.21343 0.36998,-0.28844 0.55184,-0.16671 0.62703,0.4202 0.77924,-1.02576 0.17612,-1.67025 -0.55927,-0.59698 -0.62789,-0.59463 -1.0597,0.0363 -0.2539,0.37109 -0.5743,1.6597 -0.71161,2.86356 -0.13724,1.20387 -0.39514,2.53246 -0.57208,2.95245 -0.23732,0.5626 -0.26933,0.41183 -0.12121,-0.57271 z m -0.97105,-3.74832 c 0.14638,-1.08365 -1.16035,-1.15721 -1.68467,-0.0948 -0.5937,1.20271 -0.4409,1.50826 0.6038,1.20724 0.62161,-0.17911 1.00864,-0.57745 1.08087,-1.1124 z m 1.472,-0.30149 c 0,-0.50252 -0.15843,-0.91367 -0.35226,-0.91367 -0.19387,0 -0.35227,0.24367 -0.35227,0.54148 0,0.29781 -0.0972,0.8152 -0.21558,1.14975 -0.15784,0.4452 -0.0634,0.54497 0.35226,0.37218 0.31223,-0.12987 0.56726,-0.64723 0.56726,-1.14974 z m -17.87024,3.17597 c 1.05196,-1.08498 1.20304,-1.77335 0.54611,-2.48606 -0.32883,-0.35634 -0.25047,-0.45816 0.35226,-0.45816 1.58104,0 0.6793,2.44819 -1.33813,3.63282 -0.29051,0.17057 -0.0927,-0.13926 0.44033,-0.6886 z m -1.14439,-0.46248 c 0.24132,-0.31499 0.51752,-0.5727 0.61439,-0.5727 0.0972,0 -0.0228,0.25771 -0.26248,0.5727 -0.24132,0.31499 -0.51811,0.57272 -0.61446,0.57272 -0.0966,0 0.0228,-0.25773 0.26249,-0.57272 z m 9.02939,-0.45455 c -0.13382,-0.14501 -0.75433,-0.27386 -1.37913,-0.28635 -0.90068,-0.018 -1.15926,-0.1999 -1.24808,-0.87808 -0.16868,-1.28517 1.43536,-2.00114 2.38817,-1.06617 0.67959,0.66692 0.71945,0.62167 1.87995,-2.13481 0.6521,-1.54889 1.48904,-3.07093 1.85994,-3.3823 0.64889,-0.54473 0.65163,-0.537 0.0716,0.20487 -0.33169,0.42405 -0.86049,1.4398 -1.17546,2.25721 -0.5564,1.4432 -0.55068,1.50455 0.20415,2.12137 0.79271,0.64836 0.7552,1.79644 -0.0966,2.95065 -0.37513,0.50791 -2.09748,0.65484 -2.50447,0.21361 z m 2.44345,-0.49997 c 0.0812,0 0.14753,-0.42953 0.14753,-0.95452 0,-1.20796 -1.04397,-1.29335 -1.7084,-0.13968 -0.3917,0.67957 -0.39114,0.86899 0.002,1.1414 0.2602,0.17964 0.68358,0.24254 0.94155,0.13969 0.25789,-0.1028 0.53523,-0.1869 0.61622,-0.1869 z m -3.02187,-0.58468 c 0,-0.60963 -0.93583,-1.20052 -1.29114,-0.81528 -0.11263,0.12194 -0.11093,0.48674 0.004,0.81079 0.26992,0.76305 1.28701,0.76658 1.28701,0.005 z m -5.05671,-1.51646 c 0.15783,-0.44494 0.0172,-0.85853 -0.39972,-1.19014 -0.55755,-0.44193 -0.74632,-0.38493 -1.4489,0.43701 -0.79795,0.93363 -2.60214,1.31923 -2.60214,0.55616 0,-0.22398 0.37227,-0.28781 0.87699,-0.1504 1.17125,0.31873 1.64771,-0.85001 0.67673,-1.65974 -0.62989,-0.52528 -0.60508,-0.54837 0.38314,-0.35719 0.76861,0.14872 1.29553,-0.0212 1.93422,-0.62408 0.82587,-0.77948 0.84136,-0.78138 0.26189,-0.0319 -0.595,0.76928 -0.58585,0.81152 0.2665,1.23267 1.00039,0.49424 1.13667,1.27585 0.34654,1.98695 -0.45289,0.40745 -0.49865,0.37642 -0.29509,-0.19935 z m -6.5634,-1.33512 c 0,-0.20999 0.14925,-0.3818 0.33168,-0.3818 0.18241,0 0.42945,0.17181 0.54897,0.3818 0.11951,0.20999 -0.0286,0.38182 -0.33168,0.38182 -0.30194,0 -0.54897,-0.17183 -0.54897,-0.38182 z m 1.71195,-0.12352 c 0.5524,-0.72596 0.30251,-1.7855 -0.42145,-1.7855 -0.27049,0 -0.89461,0.34362 -1.38703,0.76361 -1.74838,1.49118 -1.43631,0.73044 0.63527,-1.54868 2.19595,-2.41597 4.27463,-4.0495 4.64381,-3.64926 0.11895,0.12901 0.0229,0.23446 -0.20986,0.23446 -0.23447,0 -1.22857,0.81409 -2.20962,1.80911 -1.69777,1.72191 -1.74369,1.8193 -0.95323,2.02014 1.15034,0.29231 1.29405,1.70472 0.23561,2.31632 -0.73769,0.42626 -0.76886,0.41129 -0.33396,-0.1602 z m 12.72514,0.22946 c 0,-0.22173 0.32651,-0.80876 0.7251,-1.30451 l 0.72521,-0.90136 -0.61856,1.14542 c -0.81414,1.50754 -0.83175,1.52997 -0.83175,1.06045 z m 14.97427,-0.09 c -0.12637,-0.22166 0.0228,-0.50897 0.33625,-0.63842 0.77464,-0.3223 1.01567,0.0319 0.39915,0.58671 -0.34711,0.3123 -0.57727,0.3285 -0.73505,0.0517 z m -13.56581,-0.20675 c 0,-0.47283 0.20015,-0.75498 0.4672,-0.65856 0.16011,0.0578 0.18871,-0.24291 0.0646,-0.66816 -0.25733,-0.87807 0.34368,-1.0739 0.64875,-0.21156 0.10925,0.30892 -0.0457,0.82437 -0.33967,1.14542 -0.55069,0.59691 -0.84028,0.73237 -0.84028,0.39286 z m 6.33822,-0.4668 c 0.29048,-0.11863 1.30832,-0.61934 2.26183,-1.11275 0.9535,-0.4934 1.80972,-0.81456 1.90283,-0.71368 0.20986,0.22735 -3.67065,2.11367 -4.26268,2.07219 -0.24647,-0.0173 -0.20472,-0.12223 0.0983,-0.24576 z m -28.52198,-1.1404 c -2.65991,-1.06046 -2.12791,-4.66502 0.6945,-4.70531 l 0.89003,-0.013 -0.8313,-0.7509 c -0.45746,-0.413 -0.66059,-0.75091 -0.45233,-0.75091 0.20873,0 1.21656,0.79736 2.23978,1.77193 1.02326,0.97456 1.92792,1.83521 2.0105,1.91259 0.0823,0.0773 -0.34426,-0.0461 -0.94795,-0.27432 -0.60386,-0.22826 -1.28496,-0.65938 -1.51364,-0.95808 -0.50666,-0.66185 -2.14466,-0.71293 -2.72383,-0.085 -0.7004,0.75943 -0.50209,2.49254 0.36027,3.14735 1.0272,0.78015 1.91735,0.75332 2.34257,-0.0705 0.18872,-0.36575 0.47408,-0.52352 0.63316,-0.35059 0.35397,0.38378 -0.86446,1.40899 -1.62487,1.36723 -0.30191,-0.0166 -0.78661,-0.12496 -1.07705,-0.24074 z m 14.276,-0.0846 c -0.11151,-0.1955 -0.04,-0.46335 0.15553,-0.59524 0.19672,-0.1319 0.35799,-0.0235 0.35799,0.24086 0,0.38284 0.0893,0.3842 0.43746,0.007 0.34826,-0.37756 0.33054,-0.54737 -0.0881,-0.83412 -0.44604,-0.30554 -0.43174,-0.36095 0.091,-0.36592 0.70875,-0.007 0.81327,0.77319 0.19384,1.44503 -0.50723,0.54983 -0.87337,0.58264 -1.14695,0.1028 z m 15.37467,-0.51167 c -0.24302,-0.32253 -0.20586,-0.61726 0.12069,-0.94269 0.30477,-0.30438 0.55239,-0.33625 0.69324,-0.0892 0.12065,0.21134 0.36655,0.2854 0.54725,0.16457 0.18015,-0.12078 0.32768,-0.0437 0.32768,0.17125 0,0.68913 -1.29193,1.22181 -1.68833,0.69611 z m 9.87363,-1.1033 c -0.29678,-0.85159 -0.56842,-1.11177 -0.98193,-0.9397 -0.36769,0.15298 -0.51982,0.0674 -0.42544,-0.23956 0.31222,-1.01597 1.44739,-0.4962 1.75838,0.80523 0.39628,1.65842 0.17727,1.89189 -0.3517,0.37403 z m -4.94071,-1.21635 c 0.21729,-0.76721 0.52322,-1.39494 0.68032,-1.39494 0.15725,0 0.10064,0.47249 -0.12582,1.04996 -0.65247,1.66508 -0.98695,1.87318 -0.55469,0.34498 z m 6.26276,0.96857 c 0,-0.20503 0.25104,-0.47719 0.55814,-0.60479 0.3431,-0.14272 0.50379,-0.0574 0.41801,0.22164 -0.17555,0.57074 -0.97575,0.88498 -0.97575,0.38315 z m -39.26182,-0.83629 c -0.58103,-0.41721 -0.84368,-0.75971 -0.58373,-0.76109 0.2602,-0.001 0.87556,0.3411 1.36792,0.76109 1.15661,0.98646 0.58951,0.98646 -0.78419,0 z m 40.04292,-0.98303 c -0.22761,-0.44049 -0.5945,-0.58633 -1.10875,-0.44049 -0.49924,0.14156 -0.72135,0.0612 -0.63323,-0.2292 0.24934,-0.82131 1.59426,-0.73149 2.02195,0.13507 0.48149,0.97497 0.21215,1.48847 -0.28021,0.53467 z m 2.94136,-1.14417 c -0.30423,-0.32999 -0.55355,-0.7718 -0.55355,-0.98179 0,-0.20999 0.24932,-0.1118 0.55355,0.21818 0.30422,0.32999 0.91358,0.59997 1.35391,0.59997 1.51821,0 2.56091,-2.25678 1.54943,-3.35352 -0.22932,-0.2485 -0.29965,-0.57855 -0.1567,-0.73347 0.39745,-0.4307 0.91429,0.70195 0.92035,2.01596 0.0115,2.17802 -2.37725,3.63291 -3.66676,2.23467 z m -41.23819,-0.57084 c -0.29735,-0.52151 0.0172,-0.85323 0.95117,-1.00801 0.60523,-0.10011 0.66598,-0.0229 0.32822,0.41814 -0.32022,0.41815 -0.31106,0.58595 0.04,0.7389 0.25047,0.10877 0.10753,0.21146 -0.31681,0.22802 -0.42431,0.0166 -0.8759,-0.15309 -1.00365,-0.37705 z m 51.11604,-0.18026 c -0.33968,-0.96013 -0.23962,-1.20786 0.17556,-0.43387 0.20587,0.38324 0.29965,0.77723 0.20872,0.87554 -0.0909,0.0982 -0.26363,-0.10046 -0.38487,-0.44167 z m -16.09706,-0.20563 c -0.33395,-0.22927 -0.35626,-0.34254 -0.0668,-0.34648 0.23617,-0.002 0.35111,-0.22675 0.25561,-0.49673 -0.1064,-0.30038 0.10283,-0.4909 0.53925,-0.4909 0.4329,0 0.71299,0.25193 0.71299,0.64095 0,0.78475 -0.76835,1.15449 -1.44038,0.69316 z m 13.08827,-0.5114 c -0.0172,-0.40248 0.0679,-0.62799 0.18527,-0.50113 0.11723,0.12684 0.12982,0.45618 0.0286,0.73179 -0.11264,0.30459 -0.19615,0.21413 -0.21272,-0.23066 z m -55.31833,-0.80467 c -0.24533,-0.32006 -0.33166,-0.70521 -0.1927,-0.85588 0.13895,-0.15067 0.40714,0.0253 0.59584,0.39104 0.18874,0.36573 0.57799,0.66498 0.86493,0.66498 0.74897,0 1.01333,-1.04648 0.45121,-1.78509 -0.40774,-0.535 -0.40374,-0.60276 0.0228,-0.44967 0.27678,0.0992 0.66363,0.45632 0.8599,0.79371 0.80252,1.37952 -1.61428,2.53193 -2.60243,1.24091 z m 46.48743,0.19849 c 0,-0.23051 0.53582,-0.96873 1.18967,-1.64049 0.65426,-0.67177 1.3625,-1.56503 1.57384,-1.98503 0.24761,-0.49241 0.38828,-0.56859 0.39515,-0.21453 0.005,0.30201 -0.32309,1.07516 -0.73055,1.71814 -0.86507,1.36439 -2.42789,2.73025 -2.42789,2.12191 z m -52.35242,-1.50908 c 4.26158,-0.38789 6.57632,-1.04278 6.57632,-1.86061 0,-0.46624 -0.0938,-0.49763 -0.42259,-0.14126 -0.23274,0.25198 -0.77572,0.45816 -1.20735,0.45816 -0.8356,0 -2.07456,-1.07406 -1.70333,-1.47662 0.12183,-0.13218 0.45063,0.0993 0.73054,0.51426 0.40546,0.60109 0.63224,0.66834 1.11557,0.33058 0.33397,-0.23321 0.55184,-0.74169 0.48492,-1.12996 -0.0931,-0.53902 0.11725,-0.43677 0.89119,0.43245 0.61731,0.69346 0.90175,1.30834 0.72779,1.57323 -0.48208,0.73334 -3.43395,1.34798 -7.1308,1.48455 l -3.52121,0.13003 z m 9.93651,-0.37192 c -0.1115,-0.19549 -0.0399,-0.46336 0.15553,-0.59525 0.19673,-0.13189 0.35799,-0.0579 0.35799,0.16452 0,0.22239 0.17727,0.40434 0.39342,0.40434 0.2299,0 0.31052,-0.34338 0.19387,-0.826 -0.18071,-0.75001 -0.14868,-0.77095 0.35283,-0.22754 0.30365,0.32915 0.44489,0.78675 0.31337,1.0169 -0.29107,0.51035 -1.48709,0.55303 -1.76645,0.063 z m 51.21507,-2.57495 c -1.063,-1.61172 -2.20243,-3.10902 -2.53208,-3.32732 -0.91153,-0.60366 -1.255,0.11122 -0.40488,0.84307 0.4106,0.35313 0.93686,1.07158 1.17041,1.59657 0.37512,0.84258 0.3208,0.82019 -0.46321,-0.19091 -0.73637,-0.94999 -0.99702,-1.07329 -1.52781,-0.72269 -0.93886,0.62026 -1.01743,1.69154 -0.14238,1.93969 0.70835,0.20087 1.04612,0.88293 0.43745,0.88293 -0.41858,0 -1.46302,-1.30813 -1.46302,-1.83188 0,-0.76597 1.42987,-3.44063 1.95654,-3.65976 0.27963,-0.11625 0.50837,-0.0732 0.50837,0.0958 0,0.16899 0.79606,1.38283 1.76913,2.69741 1.53456,2.0733 3.0336,4.60749 2.72549,4.60749 -0.0572,0 -0.97078,-1.31867 -2.03373,-2.93037 z m -58.64489,-1.42917 c -0.37571,-0.29783 -0.56269,-0.67186 -0.41572,-0.83119 0.14696,-0.15935 0.46777,0.007 0.71291,0.37135 0.28536,0.42284 0.67079,0.56749 1.07004,0.40135 1.02986,-0.4285 0.52783,-1.47809 -0.82289,-1.72 l -1.22844,-0.22004 1.00663,-0.45445 c 0.84353,-0.38082 0.93532,-0.54762 0.5667,-1.02957 -0.36655,-0.47838 -0.34311,-0.53467 0.13781,-0.33464 0.55756,0.23194 0.71497,0.62916 0.61343,1.54714 -0.0287,0.2386 0.19156,0.53333 0.48378,0.65496 0.31281,0.13001 0.50094,0.61992 0.45807,1.18885 -0.0584,0.76614 -0.2642,0.96773 -0.98611,0.96773 -0.50208,0 -1.21965,-0.24367 -1.59524,-0.54149 z m 52.66271,-2.29953 c 0,-0.0926 0.1584,-0.27456 0.35226,-0.40434 0.19387,-0.12974 0.35225,-0.054 0.35225,0.16838 0,0.22238 -0.15838,0.40434 -0.35225,0.40434 -0.19386,0 -0.35226,-0.0758 -0.35226,-0.16838 z m 4.99386,-0.77258 c 0.0851,-0.85857 -0.0457,-1.16724 -0.55013,-1.27844 -0.36426,-0.0807 -0.79749,0.0851 -0.963,0.36824 -0.21672,0.37105 -0.30249,0.26784 -0.3065,-0.36959 -0.004,-0.73942 0.15268,-0.86462 0.95646,-0.76362 1.1583,0.14549 1.93807,1.90637 1.19558,2.69997 -0.35683,0.38152 -0.4226,0.252 -0.33281,-0.65656 z m -5.85735,-0.29992 c 0.26819,-0.76266 1.05101,-0.88407 1.42871,-0.22147 0.16698,0.29328 0.068,0.36908 -0.28878,0.22073 -0.29909,-0.12425 -0.73026,-0.0247 -0.95893,0.22148 -0.3191,0.34309 -0.36142,0.29159 -0.18129,-0.22074 z m 5.4411,-5.2273 c 0,-0.22239 0.1584,-0.40434 0.35227,-0.40434 0.45117,0 0.45117,0.27034 0,0.5727 -0.19387,0.12973 -0.35227,0.0539 -0.35227,-0.16836 z m -61.77509,-8.12173 c -0.14867,-0.36879 -0.005,-1.4988 0.3294,-2.59138 0.32653,-1.0656 0.50149,-2.1977 0.38886,-2.51579 -0.1281,-0.36123 -0.059,-0.48065 0.18356,-0.31811 0.23332,0.15632 0.31337,0.86942 0.19956,1.78569 -0.32652,2.63993 0.9331,4.29072 2.5556,3.34917 1.36988,-0.79492 1.38058,-3.33108 0.0172,-3.71807 -0.70955,-0.20121 -0.98975,-0.87374 -0.36427,-0.87374 0.71637,0 1.77428,1.715 1.77428,2.87636 0,2.40731 -2.59379,3.39411 -3.77656,1.43677 l -0.62376,-1.03215 -0.2093,1.12761 c -0.16756,0.90241 -0.26248,0.997 -0.4735,0.47364 z m 63.26898,-0.50778 c -0.80986,-0.61508 -1.07941,-1.70181 -0.42201,-1.70181 0.20242,0 0.32137,0.30068 0.26419,0.66816 -0.0755,0.48809 0.1338,0.66816 0.77685,0.66816 1.4283,0 1.15102,-1.38297 -0.44033,-2.19538 -1.51516,-0.7736 -1.78085,-1.22087 -0.38314,-0.64451 0.59222,0.24412 1.06091,0.2529 1.2722,0.0239 0.50152,-0.54379 -0.0287,-1.19286 -0.97307,-1.19286 -0.83443,0 -1.94107,-0.88624 -1.94107,-1.55451 0,-0.66982 0.62222,-0.35412 0.80631,0.40909 0.219,0.90872 1.23943,1.01546 1.54175,0.16129 0.28078,-0.79281 -0.49063,-1.54984 -1.90448,-1.87061 -1.13466,-0.25734 -1.13981,-0.25167 -0.92182,1.01163 0.15211,0.87968 0.10583,1.15297 -0.14982,0.88859 -0.20303,-0.20999 -0.42203,-0.79689 -0.48665,-1.30421 -0.0823,-0.64611 -0.48722,-1.07661 -1.35025,-1.43718 -0.67781,-0.28311 -0.83627,-0.42243 -0.35225,-0.30956 4.54694,1.05989 5.15343,1.04243 4.77687,-0.13752 -0.15096,-0.47264 -0.0702,-0.44704 0.32252,0.1028 0.35685,0.49922 0.41174,0.87804 0.17271,1.19021 -0.24132,0.31533 -0.17728,0.61404 0.20644,0.95919 0.30651,0.27568 0.48893,0.78452 0.40544,1.13077 -0.0834,0.34624 0.0613,0.94548 0.32195,1.33167 0.33111,0.49086 0.36426,0.84495 0.11038,1.17673 -0.24991,0.32664 -0.24819,0.55173 0.005,0.72202 0.34597,0.23165 0.54326,2.1114 0.22186,2.1114 -0.0812,0 -0.35969,0.0883 -0.61885,0.19622 -0.25962,0.10795 -0.82694,-0.0736 -1.26127,-0.40346 z m 3.76135,-0.46092 -0.85367,-1.04999 0.96838,0.92562 c 0.90501,0.86513 1.1298,1.17432 0.85358,1.17432 -0.0628,0 -0.49921,-0.47248 -0.96829,-1.04995 z m -65.61957,-2.00451 c 0.12695,-0.52497 0.37113,-1.11772 0.54326,-1.31722 0.50265,-0.58319 0.34826,0.25344 -0.24304,1.31722 l -0.53067,0.95452 z m -3.44345,-1.02177 c 0.35283,-0.15356 0.36142,-0.31987 0.04,-0.74222 -0.34081,-0.44544 -0.30136,-0.49626 0.21902,-0.2798 0.48722,0.20267 0.56555,0.13767 0.33454,-0.27761 -0.24991,-0.449 -0.19272,-0.44616 0.33282,0.0166 0.38312,0.33726 0.47862,0.61505 0.24131,0.70077 -0.21616,0.0781 -0.30366,0.29916 -0.19385,0.49122 0.10922,0.19205 -0.16698,0.33563 -0.614,0.31906 -0.44719,-0.0166 -0.60845,-0.1192 -0.35855,-0.22803 z m 11.74904,-1.65087 c 0,-0.52497 0.08,-0.73975 0.17786,-0.47726 0.0977,0.2625 0.0977,0.69203 0,0.95452 -0.0977,0.2625 -0.17786,0.0477 -0.17786,-0.47726 z m 56.63638,-0.3818 c -0.31736,-0.22239 -0.36084,-0.37245 -0.10866,-0.37597 0.23046,-0.002 0.51752,0.16598 0.63698,0.37597 0.27049,0.47402 0.14811,0.47402 -0.52839,0 z m -57.01631,-1.30451 c -0.0172,-0.40248 0.0679,-0.62799 0.18529,-0.50112 0.11721,0.12685 0.12923,0.45619 0.0286,0.73181 -0.11265,0.30457 -0.19614,0.2141 -0.21273,-0.23069 z m -7.65078,-3.02291 c -1.1907,-1.29481 -2.34829,-2.78373 -2.57228,-3.30871 -0.3454,-0.80887 -0.2848,-0.77974 0.39515,0.1909 0.44147,0.62997 1.28168,1.64265 1.86805,2.2504 1.02939,1.0669 1.06998,1.07674 1.17875,0.28551 0.0618,-0.45071 0.40259,-0.98753 0.75628,-1.19297 0.51009,-0.29604 0.76066,-0.17984 1.2078,0.56011 0.64939,1.07464 0.72481,1.95322 0.19786,2.30627 -0.23731,0.15905 -0.2865,-0.10058 -0.13895,-0.73751 0.25902,-1.11891 -0.64929,-1.80035 -1.36513,-1.0242 -0.31737,0.34422 -0.26819,0.72472 0.21102,1.62964 0.34368,0.64931 0.58025,1.22875 0.52609,1.28765 -0.0572,0.0588 -1.07335,-0.95229 -2.26411,-2.24709 z m 53.13506,0.14344 c -1.21049,-0.6209 -2.20082,-1.21309 -2.20082,-1.31597 0,-0.16177 4.50069,1.96598 4.90035,2.31672 0.52439,0.46004 -0.83187,-0.0427 -2.69953,-1.00075 z m 3.59329,0.19234 c -0.93098,-1.00942 -1.1524,-2.79768 -0.44206,-3.56816 0.23276,-0.25199 0.90587,-0.43823 1.49654,-0.41387 0.74649,0.0308 0.85921,0.10163 0.36999,0.23198 -1.12775,0.30059 -1.58449,0.88689 -1.58449,2.03403 0,1.42084 0.91839,2.3917 1.9873,2.1008 0.46491,-0.12655 0.82969,-0.0547 0.82969,0.1633 0,0.75099 -1.80168,0.37935 -2.65692,-0.54808 z m -50.71518,-1.80421 c -1.48703,-3.38996 -2.19287,-4.2874 -2.88538,-3.66826 -0.48606,0.43426 -0.5015,0.39304 -0.13495,-0.35322 0.24131,-0.4915 0.62428,-0.75783 0.91518,-0.63678 0.52268,0.21746 3.56807,6.54046 3.29352,6.83812 -0.0869,0.0939 -0.62155,-0.88699 -1.18865,-2.17986 z m 54.09759,-0.14714 c -0.59665,-0.95871 -0.92478,-1.63581 -0.72916,-1.5047 0.51525,0.3452 0.41574,-0.6433 -0.14524,-1.44534 -0.42146,-0.60199 -0.66803,-0.63241 -2.05632,-0.25337 -0.86785,0.23694 -1.95469,0.35343 -2.41533,0.25889 -0.66116,-0.13565 -0.59648,-0.18283 0.3071,-0.22388 0.62943,-0.0285 1.14444,-0.22381 1.14444,-0.4338 0,-0.21 -0.15839,-0.3818 -0.35226,-0.3818 -0.19386,0 -0.35226,-0.27313 -0.35226,-0.60696 0,-0.33384 -0.34368,-0.90842 -0.76297,-1.27686 -0.87309,-0.76659 -0.679,-1.95173 0.31167,-1.90412 0.36884,0.0178 0.44605,0.10947 0.18699,0.22274 -0.57242,0.25044 -0.57242,1.64296 0,1.70012 0.6081,0.0607 1.82243,-0.0914 1.97219,-0.24712 0.0679,-0.0708 -0.32823,-0.78408 -0.87966,-1.58534 -0.55184,-0.80127 -0.72311,-1.21824 -0.38086,-0.92661 1.22382,1.0424 3.90803,5.6205 4.66984,7.96495 0.4266,1.31246 0.72843,2.38629 0.67088,2.38629 -0.0578,0 -0.59283,-0.7844 -1.18955,-1.74309 z m -2.15665,-3.96077 c 0.41916,-0.28744 0.42659,-0.4499 0.0457,-0.94865 -0.82712,-1.08069 -2.09337,-0.50265 -1.64904,0.75279 0.22244,0.62885 0.85976,0.70664 1.60415,0.19586 z m -54.35237,4.22612 c -0.10809,-0.18961 0.04,-0.55709 0.32767,-0.81659 0.42661,-0.38362 0.5244,-0.36024 0.5244,0.12511 0,0.71279 -0.57438,1.17886 -0.85218,0.69148 z m -1.61278,-2.24487 c 0,-0.2625 0.29736,-0.47726 0.66117,-0.47726 0.3637,0 0.82553,0.21476 1.02646,0.47726 0.27793,0.36324 0.1201,0.47726 -0.66117,0.47726 -0.58636,0 -1.02646,-0.2046 -1.02646,-0.47726 z m 8.88488,-1.24087 c 0,-0.73498 0.0727,-1.03566 0.16125,-0.66816 0.0887,0.36749 0.0887,0.96884 0,1.33632 -0.0887,0.36749 -0.16125,0.0668 -0.16125,-0.66816 z m 39.79627,0.11862 c 0.3391,-0.0961 0.89357,-0.0961 1.23246,0 0.33909,0.0961 0.0618,0.17461 -0.61625,0.17461 -0.67774,0 -0.9551,-0.0785 -0.61621,-0.17461 z m -2.10539,-0.34931 c 0.11725,-0.12684 0.4209,-0.14041 0.67491,-0.0302 0.28078,0.12194 0.19729,0.21235 -0.21272,0.23068 -0.37114,0.0166 -0.57919,-0.0736 -0.46208,-0.20054 z m -42.70606,-0.71897 c 0.52554,-0.68603 0.22646,-1.72299 -0.49636,-1.72299 -0.28707,0 -0.6924,0.30067 -0.90083,0.66816 -0.32825,0.5781 -0.36599,0.53949 -0.28193,-0.28635 0.13953,-1.36748 1.53576,-1.52968 2.07708,-0.24131 0.43803,1.04233 0.21786,2.15034 -0.42718,2.15034 -0.2945,0 -0.28649,-0.15658 0.0287,-0.56785 z m 4.93345,-1.39548 c 0,-1.27045 -0.8134,-2.41935 -1.50811,-2.13027 -0.45806,0.19053 -0.51983,0.002 -0.35685,-1.08339 0.17156,-1.14455 0.10231,-1.31371 -0.53639,-1.31371 -0.40316,0 -0.90495,0.30067 -1.11533,0.66816 -0.3557,0.62082 -0.37572,0.61696 -0.28194,-0.0545 0.23276,-1.66582 2.38984,-1.79647 2.38984,-0.14477 0,0.48108 0.30934,1.08395 0.68684,1.33975 0.67695,0.45844 1.36488,2.96647 0.93999,3.42721 -0.12009,0.13016 -0.21844,-0.1886 -0.21844,-0.70845 z m 4.6054,-0.4866 c -0.0172,-0.40248 0.068,-0.62799 0.18529,-0.50113 0.11721,0.12685 0.12923,0.4562 0.0287,0.73181 -0.11264,0.30458 -0.19614,0.2141 -0.21274,-0.23068 z m -12.56295,-0.89672 c -0.4712,-0.34147 -0.50668,-1.61683 -0.0457,-1.61683 0.18241,0 0.23446,0.30067 0.11665,0.66816 -0.179,0.55696 -0.12638,0.54483 0.31451,-0.073 0.46207,-0.64739 0.52954,-0.65947 0.52954,-0.0954 0,0.35512 -0.16813,0.64568 -0.37285,0.64568 -0.20527,0 -0.27505,0.1718 -0.15554,0.3818 0.25618,0.4497 0.14525,0.47543 -0.38715,0.0896 z m 12.94283,-1.23504 c 0,-0.52498 0.08,-0.73975 0.17785,-0.47726 0.0977,0.26251 0.0977,0.69203 0,0.95452 -0.0977,0.2625 -0.17785,0.0478 -0.17785,-0.47726 z m 26.08967,-1.7904 c 0.33911,-0.0961 0.89352,-0.0961 1.23245,0 0.33911,0.0961 0.0618,0.17461 -0.61622,0.17461 -0.67782,0 -0.95511,-0.0785 -0.61623,-0.17461 z m -21.39752,-2.01496 c 1.05289,-2.25283 1.15233,-3.06365 0.26992,-2.20156 -1.097,1.07192 -2.40928,1.19917 -3.22668,0.31292 -0.40429,-0.43817 -0.72973,-1.09736 -0.72355,-1.46485 0.005,-0.51741 0.17441,-0.43127 0.73356,0.3818 0.85727,1.24579 2.12687,1.37258 3.10658,0.31022 0.46435,-0.50331 0.73672,-0.59484 0.85256,-0.28635 0.0977,0.26045 0.18243,0.18897 0.19786,-0.16802 0.0172,-0.34177 -0.20814,-0.83372 -0.49693,-1.09323 -0.28822,-0.2595 -0.4243,-0.64737 -0.30194,-0.86195 0.12409,-0.21773 0.42375,0.013 0.67753,0.52052 0.44662,0.89292 0.45976,0.88091 0.68502,-0.61658 0.29565,-1.96452 0.23846,-2.30246 -0.38086,-2.2378 -0.61999,0.0648 -0.68593,-0.60282 -0.0674,-0.68227 0.24189,-0.031 0.67775,-0.0847 0.9683,-0.119037 0.29051,-0.0344 0.81609,-0.20355 1.16807,-0.37598 0.38599,-0.189067 0.7963,-0.143877 1.03396,0.11368 0.29106,0.3152 0.55812,0.26625 1.01961,-0.186517 0.34425,-0.33758 0.86903,-0.512437 1.16678,-0.38856 0.643,0.26754 0.71758,1.814384 0.11896,2.463664 -0.53067,0.57491 -1.33813,0.59635 -1.33813,0.0354 0,-0.23246 0.2436,-0.32127 0.54156,-0.19735 0.72989,0.30371 1.06573,-0.76013 0.48148,-1.523997 -0.41917,-0.547417 -0.52667,-0.524027 -1.09578,0.238057 -0.34711,0.46482 -0.6311,1.07775 -0.6311,1.36209 0,0.28433 -0.30649,0.69484 -0.68112,0.91221 -0.85172,0.49427 -1.07954,0.49711 -1.07954,0.013 0,-0.20999 0.32825,-0.38181 0.72877,-0.38181 0.5547,0 0.70183,-0.20562 0.61621,-0.85907 -0.0716,-0.54699 -0.35566,-0.85906 -0.78222,-0.85906 -0.53181,0 -0.86349,0.66811 -1.61102,3.24536 -0.8986,3.0983 -2.29002,6.4907 -2.66207,6.4907 -0.0961,0 0.22417,-0.85336 0.71134,-1.89634 z m 23.86975,1.66566 c 0.11721,-0.12685 0.42088,-0.14041 0.67482,-0.0302 0.28079,0.12193 0.19787,0.21235 -0.21271,0.23067 -0.37114,0.0166 -0.57918,-0.0736 -0.46206,-0.20055 z m 6.08183,-0.12468 c -0.1115,-0.19549 -0.0583,-0.45222 0.11837,-0.57052 0.17671,-0.11833 0.41174,0.0417 0.52325,0.35542 0.21901,0.61857 -0.31052,0.79602 -0.6412,0.2151 z m 2.00668,-0.41984 c 0.36657,-0.64104 0.3517,-0.83836 -0.0851,-1.13958 -0.44891,-0.3094 -0.43404,-0.36519 0.0995,-0.37016 0.81088,-0.007 1.1596,0.98801 0.60148,1.71714 -0.64826,0.84696 -1.12615,0.68593 -0.61549,-0.2074 z m -36.2982,-0.37016 c 0,-0.52499 0.08,-0.73975 0.17783,-0.47726 0.0977,0.2625 0.0977,0.69202 0,0.95453 -0.0977,0.26248 -0.17783,0.0477 -0.17783,-0.47727 z m 31.79495,-0.18783 c 2.90837,-1.14 3.28864,-1.46941 2.65385,-2.29883 -0.41918,-0.54752 -0.37343,-0.56386 0.44488,-0.15955 0.50151,0.24772 0.84262,0.64569 0.75811,0.88435 -0.1687,0.47596 -3.57093,1.9797 -5.24855,2.31962 -0.58105,0.11776 0.0457,-0.21777 1.39182,-0.74559 z m -36.19345,-0.44852 c -0.12923,-0.13998 -0.23503,-0.59055 -0.23503,-1.00127 0,-0.62046 -0.0893,-0.66634 -0.52839,-0.27142 -0.85297,0.76759 -0.60479,-0.17566 0.2642,-1.00379 1.62577,-1.54941 7.08773,-4.83338 7.42707,-4.46545 0.11551,0.12511 0.65041,-0.0802 1.18899,-0.45613 l 0.97935,-0.68354 -0.67079,0.82272 c -0.36884,0.4525 -0.87241,0.82272 -1.11888,0.82272 -0.24646,0 -0.79608,0.47249 -1.22152,1.04996 -0.73311,0.99524 -0.76006,1.00283 -0.51696,0.14564 l 0.25676,-0.90434 -1.05369,0.67491 c -0.95298,0.61039 -1.02389,0.78787 -0.74129,1.85633 0.17214,0.64978 0.29107,1.61209 0.26477,2.13844 -0.0457,0.93957 -0.0514,0.94079 -0.20473,0.0666 -0.14639,-0.83194 -0.19785,-0.84957 -0.79051,-0.26825 -0.58432,0.5734 -0.67884,0.57373 -1.20409,0.005 -0.31338,-0.33994 -0.57014,-0.86957 -0.57014,-1.17695 0,-0.44056 -0.14924,-0.47236 -0.70422,-0.15019 -0.80511,0.46716 -0.95386,2.10526 -0.21903,2.41103 0.26705,0.11111 0.6725,5.8e-4 0.90124,-0.2455 0.31909,-0.34307 0.36141,-0.2916 0.18127,0.22075 -0.23216,0.66078 -1.23096,0.90599 -1.68506,0.41361 z m 3.57286,-3.11566 c 0.12008,-1.32 0.0115,-1.40966 -1.01372,-0.81622 -0.77794,0.45142 -0.87539,1.15046 -0.25446,1.82399 0.65825,0.71371 1.14655,0.32562 1.26795,-1.00777 z m 11.56383,1.48174 c 2.00564,-2.38433 4.34754,-6.11443 4.34754,-6.924557 0,-0.367677 -0.19785,-0.755154 -0.44032,-0.861064 -0.2419,-0.10596 -0.0835,-0.20616 0.35226,-0.22273 0.43576,-0.0166 0.79229,0.14772 0.79229,0.3651 0,0.257597 0.26648,0.240767 0.76439,-0.0483 0.63327,-0.36749 0.84456,-0.32475 1.23148,0.249107 0.38886,0.576607 0.38715,0.824597 -0.0115,1.480094 -0.49865,0.81811 -1.9834,1.31144 -1.9834,0.65884 0,-0.20495 0.29507,-0.28895 0.65568,-0.18669 0.74484,0.21119 1.33469,-0.9246 0.78801,-1.517367 -0.58392,-0.633144 -1.3519,-0.005 -2.61998,2.145027 -0.67302,1.14079 -2.14942,3.09278 -3.28082,4.33773 -1.13146,1.24497 -1.39903,1.48115 -0.59473,0.52486 z m -20.49172,1.09944 c -0.12753,-0.22396 -0.15669,-0.48909 -0.0646,-0.58917 0.092,-0.10011 0.26191,0.0832 0.37627,0.4072 0.23847,0.67279 0.0344,0.79113 -0.31222,0.18197 z m 48.43155,-0.12468 c 0,-0.69544 1.07148,-1.13168 1.53781,-0.62607 0.25048,0.27123 0.2316,0.53735 -0.059,0.85248 -0.32881,0.35636 -0.42259,0.30893 -0.42259,-0.21343 0,-0.36938 -0.16126,-0.56367 -0.35798,-0.43178 -0.19673,0.13189 -0.26648,0.39975 -0.15555,0.59525 0.11151,0.19547 0.0344,0.35542 -0.17041,0.35542 -0.20527,0 -0.37285,-0.23935 -0.37285,-0.53187 z m -19.68958,-0.37096 c 0.0805,-0.0766 0.54325,-0.34376 1.02698,-0.59378 0.83009,-0.42863 0.8413,-0.42069 0.19671,0.13926 -0.56098,0.48729 -1.70709,0.91302 -1.22381,0.45459 z m 12.1044,-0.26802 c -0.12754,-0.22397 -0.12868,-0.51968 -10e-4,-0.65711 0.12695,-0.13752 0.36427,-0.015 0.52839,0.27194 0.16355,0.28701 0.55126,0.41628 0.8611,0.28728 0.66746,-0.27771 0.75363,-1.62893 0.12351,-1.93809 -0.24189,-0.11876 -0.12524,-0.17409 0.26019,-0.12294 0.92269,0.12266 1.12957,1.42738 0.3271,2.06358 -0.76526,0.60673 -1.78046,0.65283 -2.09822,0.0952 z m -8.62711,-1.75908 c 2.26081,-1.82077 2.86428,-2.54732 2.76192,-3.32514 -0.0762,-0.57696 -0.35856,-0.80838 -0.98672,-0.80838 -0.64311,0 -0.8524,0.18009 -0.77686,0.66816 0.10867,0.69972 -0.44547,0.92197 -0.79019,0.31714 -0.33511,-0.58795 0.85202,-1.55801 1.90667,-1.55801 2.40021,0 1.27648,2.77465 -1.92422,4.75115 -1.04529,0.64551 -1.04728,0.64503 -0.19042,-0.0449 z m 6.52887,0.25726 c -0.11952,-0.20999 -0.059,-0.38181 0.13438,-0.38181 0.19386,0 0.45005,0.17182 0.57012,0.38181 0.11953,0.21 0.0595,0.3818 -0.13437,0.3818 -0.19385,0 -0.45004,-0.1718 -0.57013,-0.3818 z m 1.57053,-0.17259 c 0.2333,-0.30491 0.32195,-0.90517 0.19614,-1.33392 -0.17156,-0.58537 -0.0995,-0.72599 0.28821,-0.56461 0.82397,0.34287 0.9654,1.64655 0.22531,2.07611 -0.92382,0.53609 -1.20255,0.46635 -0.70966,-0.17758 z m -2.17704,-1.18539 c 0.86417,-0.65634 1.02316,-1.51477 0.34254,-1.84883 -0.2419,-0.11876 -0.12295,-0.1743 0.26419,-0.12338 1.09395,0.14387 1.09368,1.57498 -3.3e-4,2.11551 -1.26825,0.62654 -1.53628,0.56316 -0.60611,-0.1433 z m -7.16934,-2.78089 c 0.49638,-1.04001 0.49866,-1.20408 0.0228,-1.492237 -0.43916,-0.26643 -0.33109,-0.523337 0.61075,-1.450741 0.64567,-0.635957 0.85113,-0.748757 0.47177,-0.2589 -0.49866,0.643087 -0.57014,0.979424 -0.27678,1.297664 0.42204,0.457627 -0.23445,2.300574 -1.00274,2.815544 -0.21101,0.14141 -0.13323,-0.26867 0.17385,-0.91133 z m -2.96394,0.30406 c 0,-0.2192 0.27735,-0.34805 0.61622,-0.28634 0.45004,0.082 0.61617,-0.14507 0.61617,-0.84234 0,-0.648467 -0.16927,-0.915157 -0.52839,-0.831787 -0.40829,0.0949 -0.43345,0.018 -0.11151,-0.337037 0.56271,-0.621207 1.52017,-0.17033 1.52017,0.715867 0,0.776097 -1.03391,1.980187 -1.7003,1.980187 -0.22701,0 -0.41287,-0.17934 -0.41287,-0.39855 z m 8.09888,-2.799331 c 0.6778,-0.2852 1.29844,-0.455507 1.37918,-0.378447 0.25847,0.246517 -0.11609,0.426897 -1.37918,0.664844 l -1.23245,0.23216 z m -22.18388,-0.22908 c 0,-0.239887 0.1584,-0.329967 0.35226,-0.200197 0.19387,0.129737 0.35226,-0.0319 0.35226,-0.35926 0,-0.718704 -0.39058,-0.762294 -1.05696,-0.118037 -0.4203,0.406017 -0.42431,0.377517 -0.0286,-0.19092 0.66661,-0.955144 1.51094,-0.856147 1.37289,0.16101 -0.11665,0.856984 -0.99284,1.481471 -0.99284,0.707344 z m 19.24639,0.11473 c -0.44547,-0.483057 -0.22645,-0.861514 0.35798,-0.618407 0.44661,0.18577 0.53468,0.0903 0.36313,-0.393787 -0.12409,-0.351437 -0.0727,-0.638987 0.11493,-0.638987 0.18758,0 0.34141,0.23669 0.34141,0.525957 0,0.647547 -0.85951,1.469321 -1.17687,1.125224 z"
       id="path4875"
       inkscape:connector-curvature="0" />
    <text
       xml:space="preserve"
       style="font-style:normal;font-variant:normal;font-weight:normal;font-stretch:normal;font-size:19.68316269px;line-height:1.25;font-family:'Ink Free';-inkscape-font-specification:'Ink Free, Normal';font-variant-ligatures:normal;font-variant-caps:normal;font-variant-numeric:normal;font-feature-settings:normal;text-align:start;letter-spacing:0px;word-spacing:0px;writing-mode:lr-tb;text-anchor:start;fill:#000000;fill-opacity:1;stroke:none;stroke-width:0.49207908"
       x="75.628799"
       y="62.474125"
       id="text4883"
       transform="scale(0.82154771,1.2172148)"><tspan
         sodipodi:role="line"
         id="tspan4881"
         x="75.628799"
         y="62.474125"
         style="font-style:normal;font-variant:normal;font-weight:normal;font-stretch:normal;font-size:19.68316269px;font-family:'Ink Free';-inkscape-font-specification:'Ink Free, Normal';font-variant-ligatures:normal;font-variant-caps:normal;font-variant-numeric:normal;font-feature-settings:normal;text-align:start;writing-mode:lr-tb;text-anchor:start;stroke-width:0.49207908">Arnar B</tspan></text>
    <path
       style="fill:#000000;stroke-width:0.36135721"
       d="m 293.42737,203.88967 c 0,-0.12496 3.32954,-2.6764 6.4736,-4.96057 0.71257,-0.51769 2.65859,-1.3919 4.3245,-1.9427 1.6659,-0.55078 4.34898,-1.81305 5.96239,-2.80501 1.61341,-0.99197 4.8848,-2.79071 7.26976,-3.99723 5.67442,-2.87055 8.70445,-4.71254 10.47937,-6.37046 1.89216,-1.76743 8.44707,-6.90328 9.78998,-7.67056 1.26285,-0.72154 6.67641,-4.4287 8.49367,-5.81641 l 1.29986,-0.99261 0.6643,1.53654 c 0.36535,0.8451 1.19614,2.2994 1.84619,3.23179 1.64776,2.36348 1.93882,3.68603 1.29698,5.89324 -0.62462,2.14799 -2.07398,5.1343 -2.98144,6.14308 -0.35757,0.39749 -1.15404,2.03713 -1.76994,3.64364 -1.39957,3.65061 -1.25815,4.74837 0.83159,6.45538 2.83871,2.3188 11.79221,6.34273 14.11294,6.34273 0.48314,0 1.25489,0.1402 1.71502,0.31153 0.46011,0.17135 2.03003,0.42654 3.48872,0.56711 l 2.65214,0.25557 -0.26169,-0.83812 c -0.14393,-0.46096 -0.41601,-0.93745 -0.60464,-1.05885 -0.18862,-0.12142 -0.0854,-0.31956 0.22938,-0.44035 0.97141,-0.37277 0.69136,-1.24892 -0.3364,-1.05245 -0.4998,0.0956 -0.99722,0.31691 -1.10539,0.49193 -0.22452,0.36328 -1.59944,0.43808 -1.59944,0.087 0,-0.12715 0.24138,-0.41172 0.53639,-0.63237 0.30792,-0.23031 0.45394,-0.70909 0.3428,-1.12404 -0.21565,-0.80524 -1.8589,-1.73313 -2.43678,-1.37597 -0.22678,0.14014 -0.28192,-0.005 -0.14126,-0.37141 0.12687,-0.33073 0.0867,-0.60132 -0.0892,-0.60132 -0.17595,0 -0.39537,0.20327 -0.48763,0.4517 -0.0951,0.25604 -0.33539,0.0307 -0.55485,-0.52007 -0.21293,-0.53446 -0.72014,-1.14998 -1.12714,-1.3678 -0.74908,-0.40089 -1.04413,-1.81604 -0.37865,-1.81604 0.19874,0 0.36135,0.32521 0.36135,0.72272 0,0.88986 0.61549,0.95805 0.81545,0.0903 0.0815,-0.35352 -0.31995,-1.13322 -0.9103,-1.76812 -0.88265,-0.94927 -0.99122,-1.25685 -0.66126,-1.87337 0.46852,-0.87545 0.52222,-2.23057 0.0884,-2.23057 -0.51917,0 -0.40706,-2.30184 0.15399,-3.16187 0.29171,-0.44718 0.81275,-0.81305 1.15786,-0.81305 0.3451,0 0.83056,-0.32523 1.0788,-0.72272 0.37645,-0.60278 0.36088,-0.72272 -0.0937,-0.72272 -0.29979,0 -0.5451,0.24392 -0.5451,0.54204 0,0.29812 -0.23395,0.54203 -0.51989,0.54203 -0.7347,0 -1.05568,-2.60636 -0.83897,-6.8122 0.22316,-4.33124 0.65151,-5.28643 2.8761,-6.41372 0.95424,-0.48355 1.73498,-0.76261 1.73498,-0.62015 0,0.14248 0.19514,0.0639 0.43362,-0.17458 0.73864,-0.73863 2.3043,-0.52174 2.73893,0.37942 l 0.39211,0.81305 0.0244,-0.79172 c 0.0137,-0.43546 0.18707,-0.89222 0.38583,-1.01506 0.19875,-0.12278 0.36135,-0.53896 0.36135,-0.92473 0,-0.38576 0.16261,-0.70138 0.36136,-0.70138 0.19874,0 0.36136,0.15751 0.36136,0.35001 0,0.19252 0.28456,0.24625 0.63238,0.11937 0.56657,-0.20661 0.56053,-0.14881 -0.058,0.55559 -0.84168,0.95851 -0.47862,1.49552 0.44561,0.6591 0.88113,-0.7974 1.67334,-0.75767 2.27851,0.11432 0.52672,0.75892 3.97955,1.81516 5.93375,1.81516 0.62404,0 2.79618,-0.81455 4.84847,-1.81817 3.66254,-1.79107 3.73206,-1.80882 4.6656,-1.19172 1.01733,0.67247 2.04872,0.81607 2.96256,0.41245 0.31321,-0.13833 1.20757,-0.0373 1.98747,0.22447 1.81807,0.61028 3.85155,3.66576 3.52529,5.29705 -0.11309,0.5657 -0.0807,1.31813 0.0721,1.67207 0.40523,0.93848 0.5544,4.51179 0.20701,4.95869 -0.45471,0.58497 -0.78482,2.7313 -0.42008,2.7313 0.17722,0 0.49812,-0.44718 0.7131,-0.99372 0.37501,-0.95333 0.38299,-0.94231 0.19631,0.271 -0.10707,0.69563 -0.33189,1.91519 -0.4997,2.71019 -0.27144,1.2859 -0.3349,1.35344 -0.57504,0.61193 -0.14846,-0.45842 -0.46186,-0.75984 -0.69643,-0.66983 -0.23457,0.09 -0.82299,-0.13589 -1.30759,-0.50209 -0.69621,-0.52604 -0.78812,-0.75903 -0.43801,-1.11028 0.33779,-0.3389 0.34332,-0.56477 0.0232,-0.95045 -0.32189,-0.38786 -0.30977,-0.57394 0.0519,-0.7975 0.36465,-0.22535 0.31832,-0.37776 -0.2039,-0.67088 -0.63283,-0.35519 -0.63559,-0.39473 -0.0433,-0.62291 1.21554,-0.46832 0.69474,-1.52303 -1.32174,-2.67674 -1.70917,-0.97789 -2.07154,-1.06454 -2.89086,-0.69124 -0.51521,0.23475 -0.93674,0.54523 -0.93674,0.68995 0,0.50206 -2.73169,0.86127 -6.86578,0.90282 -2.28558,0.0229 -5.17621,0.17342 -6.42363,0.33435 -1.68283,0.21709 -2.84826,0.14518 -4.51696,-0.2787 -3.06389,-0.77829 -5.5566,-0.97118 -6.19503,-0.47935 -0.78029,0.60108 -1.98047,4.03781 -1.61271,4.61807 0.16943,0.26733 0.31054,1.01454 0.31358,1.66048 0.004,0.92538 0.15637,1.1744 0.7169,1.1744 0.46771,0 0.6436,0.17663 0.5135,0.51567 -0.1419,0.36979 0.003,0.46322 0.51111,0.33027 0.46046,-0.12046 0.89779,0.0841 1.24763,0.58361 0.29625,0.42298 0.76245,0.72153 1.036,0.66347 0.27355,-0.058 0.49943,0.16754 0.50196,0.50132 0.008,1.01477 0.45351,1.12947 0.92167,0.23714 0.24353,-0.46421 0.98845,-1.45428 1.65538,-2.20015 0.66696,-0.74589 1.2126,-1.74891 1.2126,-2.229 0,-1.15472 2.16186,-2.54788 3.45147,-2.22421 0.4948,0.12415 1.21166,0.0589 1.59301,-0.14528 0.46183,-0.24715 0.76816,-0.25008 0.91731,-0.008 0.3222,0.52132 0.76666,0.44805 1.45449,-0.23979 0.56193,-0.56192 0.76267,-0.55032 3.00701,0.17381 2.19678,0.70878 2.47959,0.91723 3.26815,2.40891 0.47481,0.89814 1.0594,1.63297 1.29909,1.63297 0.2397,0 0.73013,0.32523 1.08986,0.72272 0.35973,0.39749 0.88106,0.72272 1.15852,0.72272 0.27747,0 0.72834,0.52848 1.00196,1.17441 0.27363,0.64592 0.85148,1.38968 1.28413,1.65278 0.85268,0.51855 0.76533,0.13792 -0.23843,-1.03901 -0.263,-0.30835 -0.45509,-1.0401 -0.42689,-1.6261 0.0281,-0.58601 -0.09,-1.39025 -0.26255,-1.78721 -0.30672,-0.70541 -0.29174,-0.70727 0.66253,-0.0819 0.8617,0.56461 0.97634,0.57259 0.97634,0.068 0,-0.34448 0.16803,-0.46785 0.42277,-0.31041 0.28426,0.17568 0.34716,0.0643 0.19201,-0.34003 -0.32494,-0.84679 0.56795,-0.76782 1.37269,0.12141 0.35972,0.39749 0.92886,0.72271 1.26475,0.72271 0.75859,0 1.80679,1.11711 1.80679,1.92558 0,0.33216 0.15827,0.60393 0.35173,0.60393 0.38345,0 0.2628,3.27292 -0.14496,3.93269 -0.13719,0.22198 -0.0772,0.4036 0.1333,0.4036 0.70877,0 0.39024,0.78704 -0.74938,1.8516 -0.72388,0.67621 -1.36435,0.98377 -1.77637,0.853 -0.83731,-0.26577 -1.14637,0.26872 -0.75973,1.3139 l 0.30815,0.83304 0.42076,-0.78621 c 0.24112,-0.45052 0.6378,-0.70293 0.92906,-0.59117 0.27956,0.10735 0.84621,0.0142 1.25923,-0.20684 0.73929,-0.39565 0.75097,-0.3399 0.75097,3.58574 l -2e-5,3.98765 h -52.93884 c -29.11635,0 -52.93883,-0.0613 -52.93883,-0.1363 z m 70.05335,-2.59804 c -0.48983,-0.48983 -1.14725,-0.74333 -2.20853,-0.85159 -0.14906,-0.0152 -0.27101,-0.2675 -0.27101,-0.56066 0,-0.39762 0.2983,-0.48695 1.1744,-0.35171 1.0682,0.16489 1.09615,0.14704 0.30899,-0.19745 -0.47598,-0.20829 -1.17343,-0.28096 -1.54989,-0.16149 -0.5958,0.18911 -0.65222,0.0848 -0.43555,-0.80532 0.24663,-1.01319 0.242,-1.01644 -0.50514,-0.35479 -0.88033,0.7796 -1.64888,0.48099 -1.33199,-0.5175 0.12087,-0.38078 0.0651,-0.69231 -0.12387,-0.69231 -0.35048,0 -0.77691,-1.05036 -0.95359,-2.34882 -0.0541,-0.39749 0.11882,-1.03686 0.38409,-1.4208 0.36817,-0.53277 0.38339,-0.81742 0.0642,-1.20195 -0.32177,-0.38772 -0.29927,-0.57735 0.0977,-0.82264 0.41078,-0.25386 0.42443,-0.41011 0.0671,-0.76744 -0.59038,-0.59038 -0.5695,-1.02685 0.0492,-1.02685 0.90855,0 1.45975,1.02252 1.02932,1.90944 -0.21373,0.4404 -0.45988,1.24934 -0.547,1.79763 -0.12729,0.80077 -0.0632,0.91795 0.32513,0.59561 0.37658,-0.31254 0.58247,-0.17337 0.93093,0.62921 0.80807,1.86118 1.47079,2.72883 1.7452,2.28482 0.16195,-0.26202 0.54748,0.056 1.04633,0.86318 0.43444,0.70294 1.10705,1.37875 1.49466,1.50177 0.38763,0.12306 0.70478,0.4676 0.70478,0.76572 0,0.38891 -0.21782,0.47291 -0.77099,0.29734 -0.74176,-0.23543 -0.74861,-0.21275 -0.18069,0.59808 0.96901,1.38344 0.58832,1.97054 -0.54371,0.83852 z m -4.89005,-12.72284 c -0.23269,-0.14801 -0.53527,-0.7162 -0.67242,-1.26264 -0.13713,-0.54644 -0.39395,-1.08289 -0.57068,-1.19211 -0.17673,-0.10926 -0.32132,-0.51422 -0.32132,-0.89998 0,-0.38578 -0.12401,-0.70139 -0.27567,-0.70139 -0.30139,0 -0.43273,-0.22364 -2.1635,-3.68422 -0.64592,-1.29149 -1.1744,-2.53568 -1.1744,-2.76487 0,-0.68293 0.72145,-0.47187 0.73718,0.21567 0.0109,0.47517 0.13776,0.40581 0.51045,-0.27905 0.42204,-0.77554 0.4185,-1.20653 -0.0238,-2.89085 -0.28585,-1.08869 -0.55621,-3.28354 -0.60078,-4.87742 -0.0792,-2.83079 -0.10203,-2.89781 -0.98446,-2.89086 -0.79117,0.007 -0.8927,-0.13371 -0.81724,-1.12623 0.0643,-0.846 -0.0847,-1.17804 -0.58752,-1.30953 -0.74888,-0.19584 -1.06424,-1.45339 -1.36261,-5.43342 -0.11254,-1.50167 -0.0324,-2.63873 0.20629,-2.92634 0.29098,-0.35064 0.19692,-0.64537 -0.36951,-1.15764 -1.39265,-1.25947 -2.25338,-3.45296 -2.46662,-6.28596 -0.2007,-2.66634 -0.22046,-2.71088 -1.28789,-2.90329 -0.80654,-0.14536 -1.06572,-0.37724 -1.01236,-0.90568 0.0395,-0.39066 -0.24647,-2.03898 -0.63537,-3.66295 -0.38891,-1.62396 -0.80943,-3.69917 -0.93449,-4.61158 -0.22404,-1.6346 -0.23436,-1.64544 -0.70408,-0.74007 -0.26218,0.50536 -0.39896,1.12143 -0.30395,1.36904 0.0951,0.24761 -0.23723,1.00592 -0.73834,1.68514 -0.50111,0.67921 -0.91111,1.58277 -0.91111,2.00789 0,0.42513 -0.1,0.87291 -0.22209,0.99506 -0.49858,0.49857 -1.93274,-0.98211 -2.48504,-2.56566 -1.03164,-2.95793 -1.18193,-8.73806 -0.22718,-8.73806 0.16727,0 0.81268,0.95416 1.43424,2.12034 0.62157,1.16618 1.41384,2.34512 1.76056,2.61984 0.59923,0.47478 0.59943,0.45095 0.004,-0.48151 -0.93456,-1.46424 -0.82289,-2.45188 0.27725,-2.45188 0.49686,0 0.90339,0.18972 0.90339,0.42158 0,0.23187 0.0779,0.34376 0.17295,0.24864 0.0951,-0.0951 -0.38916,-1.90692 -1.07617,-4.02622 -0.68701,-2.11929 -1.15397,-4.1012 -1.03767,-4.40423 0.32426,-0.84501 1.21673,-0.65476 1.22947,0.26207 0.007,0.44718 0.40979,1.6261 0.89682,2.61983 0.48705,0.99374 0.72588,1.861 0.53075,1.92725 -0.52426,0.17799 -0.44941,0.83619 0.57649,5.07008 0.5122,2.11387 1.18678,4.04157 1.49904,4.28379 0.45345,0.35172 0.47915,0.54718 0.1277,0.97065 -0.59104,0.71216 0.10093,2.02185 1.06824,2.02185 0.95411,0 1.02333,2.03328 0.0776,2.28041 -0.3478,0.091 0.0548,0.18412 0.89445,0.20717 1.48448,0.0407 1.51706,0.0676 1.1744,0.96883 -0.62639,1.64756 -0.40355,4.54913 0.49808,6.48531 1.65028,3.54385 5.05275,5.01858 11.51207,4.98968 3.43343,-0.0154 4.09171,-0.12551 5.8274,-0.97466 2.62985,-1.28665 4.71274,-3.88833 4.44702,-5.55458 -0.13895,-0.8713 0.0217,-1.43005 0.62367,-2.16815 0.86774,-1.06407 0.91718,-2.61999 0.0606,-1.90915 -0.32054,0.26603 -0.76621,0.27488 -1.41522,0.0281 -0.73445,-0.27923 -0.94736,-0.24971 -0.94736,0.13139 0,0.27034 -0.4008,0.75414 -0.89068,1.07513 -0.98574,0.64588 -2.72289,0.78766 -2.72289,0.22223 0,-0.58068 -0.78315,-0.41627 -1.29093,0.27102 -0.37433,0.50666 -0.55824,0.54258 -0.92515,0.18068 -0.25189,-0.24843 -1.07588,-0.4517 -1.83112,-0.4517 -1.29143,0 -1.37316,-0.066 -1.37316,-1.10807 0,-0.99562 0.10079,-1.09647 0.99373,-0.99374 0.55891,0.0643 0.95421,0.312 0.90339,0.56604 -0.12892,0.64435 1.23569,0.56138 1.48577,-0.0903 0.11445,-0.29812 0.50215,-0.54203 0.86165,-0.54203 0.76335,0 2.25989,-0.97077 2.25989,-1.46593 0,-0.61149 -1.67585,-0.35851 -2.52949,0.38185 -1.05893,0.9184 -2.18328,0.9184 -3.35083,0 -1.52492,-1.1995 -2.17213,-0.81937 -1.31899,0.77472 0.21404,0.39995 0.29536,0.97167 0.1807,1.27047 -0.17763,0.46288 -0.38861,0.43196 -1.42557,-0.20891 -2.52108,-1.55811 -3.57184,-0.62283 -1.84452,1.64182 0.79546,1.0429 1.06369,1.16942 2.0778,0.98006 0.95691,-0.17868 1.08438,-0.13207 0.71527,0.26145 -0.36117,0.38507 -0.29574,0.64219 0.334,1.31253 0.55377,0.58946 0.63241,0.82991 0.26849,0.82085 -1.03457,-0.0257 -4.67027,-2.73616 -4.67028,-3.48172 0,-0.23264 -0.48586,-0.52969 -1.07968,-0.66012 -1.08095,-0.23741 -2.3219,-1.47392 -2.71166,-2.70193 -0.11417,-0.35964 -0.52737,-0.73753 -0.91828,-0.83976 -0.39091,-0.10216 -0.71075,-0.42279 -0.71075,-0.71235 0,-0.98827 4.02464,-1.53015 11.20208,-1.50824 3.99344,0.0123 6.03038,-0.0862 5.05899,-0.24424 -3.72656,-0.60645 -11.70256,-0.30735 -15.177,0.56914 -0.82108,0.20713 -0.90729,0.11991 -0.94619,-0.95703 -0.0247,-0.6861 0.18871,-1.3542 0.50714,-1.58704 0.30246,-0.22116 0.80954,-0.94337 1.12686,-1.60492 0.67263,-1.4023 1.70389,-1.98692 1.30875,-0.7419 -0.22482,0.70832 -0.15397,0.75538 0.77512,0.5149 1.19663,-0.30973 1.23288,-0.30747 4.9975,0.31174 1.65168,0.27166 3.46048,0.82781 4.2197,1.29741 2.07109,1.28103 9.99172,1.90647 12.31321,0.97229 0.90112,-0.36263 2.43835,0.0997 2.43835,0.73342 0,0.32648 0.34395,0.53515 0.88206,0.53515 1.48537,0 1.3462,0.58788 -0.26167,1.10538 -2.42276,0.77975 -2.812,1.7715 -0.71074,1.81087 1.08704,0.0203 1.21213,0.0869 0.63239,0.33596 -0.5309,0.22814 -0.24316,0.31056 1.08407,0.31056 1.21792,0 1.57512,-0.0905 1.09598,-0.27786 -0.55141,-0.21554 -0.35165,-0.32603 0.89071,-0.49267 0.93317,-0.1251 1.80164,-0.48848 2.08105,-0.87059 0.43374,-0.59319 0.35656,-0.68134 -0.80845,-0.92339 -0.73177,-0.15205 -1.8293,-0.80893 -2.5415,-1.52111 -1.11236,-1.11236 -1.21195,-1.36283 -0.88446,-2.22418 0.6133,-1.61312 0.70298,-1.6296 2.00219,-0.36783 0.94879,0.92145 1.68788,1.27491 3.04135,1.45445 3.60781,0.47859 9.71361,-0.57452 11.50618,-1.98456 0.52127,-0.41003 1.44718,-0.69132 2.27558,-0.69132 h 1.39669 v 1.5712 1.57118 l -3.74539,0.22918 c -2.05997,0.12606 -4.13325,0.3953 -4.60731,0.59838 -0.73143,0.31334 -0.64311,0.34427 0.58352,0.20434 0.79499,-0.0907 2.86828,-0.26853 4.60731,-0.39523 l 3.16187,-0.23035 v 2.16191 c 0,1.63805 -0.1385,2.21507 -0.57159,2.38127 -0.8432,0.32356 -0.87383,0.29958 -0.87383,-0.68405 0,-1.0888 -0.0333,-1.09277 -1.52704,-0.18203 -1.59563,0.97286 -2.86586,0.91435 -3.89332,-0.17934 -0.89762,-0.95544 -1.33235,-1.07865 -2.0963,-0.59408 -0.59104,0.37489 0.0875,2.08275 1.19278,3.00215 0.91145,0.75816 0.65869,1.01118 -1.11839,1.1195 -1.29933,0.0792 -1.42012,0.007 -1.52646,-0.91938 -0.10748,-0.93571 -0.20138,-0.98927 -1.35509,-0.77284 -1.03182,0.19357 -1.23962,0.12551 -1.23962,-0.4057 0,-0.60795 -0.0332,-0.60824 -0.69834,-0.007 -0.83755,0.75797 -0.65868,1.4078 0.53754,1.95283 0.91116,0.41515 1.24609,1.95811 0.52215,2.40552 -0.85607,0.52908 -0.3062,1.94014 1.36527,3.50362 2.43287,2.27566 4.29201,2.90426 8.15661,2.75789 2.74128,-0.10379 3.12722,-0.0431 3.12648,0.4918 -10e-4,0.77668 -2.53424,1.20433 -5.10994,0.86265 -4.85955,-0.64465 -8.36206,-3.27959 -10.63161,-7.9982 -0.6837,-1.42145 -1.24309,-2.75169 -1.24309,-2.95609 0,-0.80305 -3.11613,-1.07907 -4.95304,-0.43872 -1.28196,0.4469 -1.89906,2.07401 -2.18625,5.76451 -0.20301,2.60858 -0.57918,3.61357 -1.3526,3.61357 -0.28414,0 -0.69066,0.32522 -0.90339,0.72272 -0.21273,0.39749 -0.62499,0.72271 -0.91611,0.72271 -0.69241,0 -0.68325,0.68633 0.0123,0.95339 0.68862,0.26425 0.70678,0.8534 0.0264,0.8534 -0.77982,0 -2.64302,2.45709 -2.8387,3.74354 -0.23,1.51201 0.232,2.29124 1.52706,2.57569 1.28842,0.28299 4.90997,2.58137 6.16365,3.91173 1.4969,1.58842 2.99212,1.34104 6.14308,-1.01636 1.62947,-1.21908 3.01998,-1.98745 3.59667,-1.98745 1.29383,0 2.42147,-0.8713 2.6457,-2.04423 0.10311,-0.53953 -0.0436,-1.86825 -0.32605,-2.95269 -0.28247,-1.08446 -0.43587,-2.04942 -0.34092,-2.14438 0.0949,-0.0949 0.54611,-0.075 1.00253,0.0444 0.82476,0.21565 3.93675,4.6182 4.42252,6.25657 0.12811,0.43215 0.63506,1.37821 1.12647,2.10237 l 0.89349,1.31662 -0.99684,-0.11486 c -0.64532,-0.0744 -1.15192,-0.44009 -1.43664,-1.03711 -0.2419,-0.50721 -1.07608,-1.51091 -1.85375,-2.23043 l -1.41393,-1.30824 -0.48498,0.90618 c -0.50104,0.93623 -2.04961,1.92859 -3.0095,1.92859 -0.30107,0 -1.08155,0.45434 -1.73439,1.00961 -2.56603,2.1826 -5.02656,3.17284 -6.97534,2.80724 -0.67334,-0.12633 -2.10469,-0.94685 -3.18075,-1.82341 -1.07607,-0.87656 -2.66914,-1.95401 -3.54016,-2.39433 -1.89669,-0.95882 -3.20978,-2.07713 -3.20978,-2.73362 0,-0.26348 -0.21006,-0.47905 -0.46679,-0.47905 -0.64728,0 -3.50813,2.97534 -3.50813,3.64851 0,0.3023 -0.23875,0.86529 -0.53055,1.25108 -0.51811,0.68501 -0.53081,0.68272 -0.54204,-0.0981 -0.0264,-1.83297 1.48696,-4.79169 3.44365,-6.73283 1.27203,-1.2619 2.04833,-2.36884 2.20273,-3.14088 0.21438,-1.0719 0.16886,-1.16364 -0.45123,-0.90922 -1.28136,0.52575 -3.20741,0.89633 -5.74868,1.10611 -2.95957,0.2443 -5.60103,0.86147 -5.60103,1.30867 0,0.17292 -0.34159,0.3144 -0.75911,0.3144 -0.68154,0 -0.73995,0.15691 -0.57174,1.53577 0.10297,0.84467 0.35763,2.92512 0.56576,4.62322 0.20813,1.69809 0.60832,3.64942 0.88933,4.33629 0.37277,0.91118 0.43218,1.78619 0.21971,3.2363 -0.76211,5.20154 -0.25455,9.34068 1.56483,12.76102 0.29752,0.5593 0.45861,1.33171 0.358,1.71646 -0.10066,0.38473 -0.20462,0.69703 -0.23112,0.69399 -0.0265,-0.003 -0.23857,-0.1266 -0.47124,-0.27464 z m 10.45071,-46.57424 c -0.24845,-0.10025 -0.65496,-0.10025 -0.9034,0 -0.24843,0.10025 -0.0452,0.18226 0.4517,0.18226 0.49687,0 0.70013,-0.0821 0.4517,-0.18226 z m -26.60177,10.96671 c -1.31145,-1.31144 -1.702,-2.03165 -2.21367,-4.08209 -0.89446,-3.58453 -1.1,-5.49526 -0.53266,-4.95193 0.24617,0.23574 0.67837,1.78054 0.96046,3.43289 0.55455,3.24828 1.92038,5.92961 2.84059,5.57649 0.60843,-0.23346 1.43583,1.06192 0.89268,1.3976 -0.19526,0.12073 -1.0716,-0.49715 -1.9474,-1.37296 z m -0.0997,-2.85044 c -0.60631,-0.81399 -1.17399,-2.37557 -0.94633,-2.60323 0.12032,-0.12032 0.25956,-1.02611 0.30947,-2.0129 0.18685,-3.69495 1.26578,-4.50079 1.923,-1.43624 0.62462,2.91244 0.55353,3.23442 -0.7141,3.23442 -0.66364,0 -1.01382,0.14818 -0.87624,0.37077 0.12606,0.20394 0.66412,0.3259 1.19575,0.27102 0.88275,-0.0911 0.96657,0.01 0.96657,1.165 0,1.00709 -0.15367,1.28671 -0.75434,1.37253 -0.41487,0.0593 -0.91159,-0.10339 -1.10378,-0.36137 z m 52.2675,-2.61595 c 0,-0.30985 0.16261,-0.56336 0.36136,-0.56336 0.46756,0 0.46756,0.61443 0,0.9034 -0.19875,0.12278 -0.36136,-0.0302 -0.36136,-0.34004 z m -1.44543,-0.202 c 0,-0.19875 0.24392,-0.36136 0.54204,-0.36136 0.29812,0 0.54203,0.16261 0.54203,0.36136 0,0.19874 -0.24391,0.36136 -0.54203,0.36136 -0.29812,0 -0.54204,-0.16262 -0.54204,-0.36136 z m 2.89086,-0.29486 c 0,-0.36918 1.48485,-0.87023 1.76089,-0.5942 0.22994,0.22993 7.2e-4,0.39628 -0.94784,0.68784 -0.4483,0.1378 -0.81305,0.0957 -0.81305,-0.0937 z m -58.00201,-4.53913 c -0.74206,-1.13251 -1.26058,-2.99611 -1.26058,-4.53056 0,-0.68133 -0.42689,-2.30584 -0.94865,-3.61003 -0.98217,-2.45505 -1.5536,-7.32645 -1.08053,-9.21136 0.20025,-0.79783 0.43596,-0.94092 1.54999,-0.94092 1.06499,0 1.57696,0.27663 2.70328,1.46064 1.78804,1.87962 1.8164,2.7077 0.0344,1.00424 -1.90962,-1.82546 -2.78836,-2.22925 -3.35791,-1.543 -0.37057,0.44651 -0.2792,0.89947 0.5041,2.49917 0.75543,1.5428 0.94634,2.4337 0.90748,4.23504 -0.027,1.25468 -0.12442,1.8793 -0.21632,1.38805 -0.0919,-0.49125 -0.39498,-1.21853 -0.6735,-1.61617 -0.50051,-0.71457 -0.50631,-0.71469 -0.49847,-0.01 0.004,0.39202 0.32633,1.41436 0.71549,2.27186 0.38915,0.8575 0.85774,2.76883 1.04131,4.24741 0.18934,1.52516 0.65625,3.23493 1.07911,3.95162 0.82858,1.40435 0.38922,1.76013 -0.49919,0.40423 z m 28.55992,-5.27022 c -0.7682,-1.24298 -8.92218,-4.35008 -11.41594,-4.35008 -0.98016,0 -1.78212,-0.16261 -1.78212,-0.36135 0,-1.04673 4.92099,-0.26638 7.76918,1.23201 0.59623,0.31367 1.59061,0.57132 2.20974,0.57254 0.61913,0.001 1.51348,0.29776 1.98747,0.65898 0.47399,0.36121 1.39641,0.87131 2.04981,1.13355 0.65342,0.26224 1.12852,0.65781 1.05578,0.87902 -0.17904,0.54444 -1.57456,0.7197 -1.87392,0.23533 z m -13.09898,-1.18821 c 0.19204,-0.54445 3.08293,-0.48575 3.64265,0.074 0.26274,0.26275 -0.25847,0.37773 -1.71212,0.37773 -1.51594,0 -2.0461,-0.12401 -1.93053,-0.4517 z m 39.06724,-1.67121 c 0.33722,-0.37262 0.56569,-0.88768 0.50771,-1.14456 -0.0613,-0.2719 0.4231,-0.60135 1.15933,-0.78837 0.69562,-0.17671 1.76414,-0.47471 2.37448,-0.66222 1.61967,-0.4976 2.68452,-0.42233 2.68452,0.18976 0,0.32142 -0.21209,0.44931 -0.53783,0.3243 -0.29581,-0.1135 -1.35324,-0.0109 -2.34983,0.22831 -1.36766,0.3281 -1.96376,0.69161 -2.43093,1.48248 -0.3445,0.58319 -0.92968,1.04778 -1.31975,1.04778 -0.66232,0 -0.66715,-0.0371 -0.0877,-0.67748 z m -14.30448,-0.0896 c -0.73867,-0.45653 0.45324,-0.71937 1.69791,-0.37442 l 1.08407,0.30043 -1.166,0.17604 c -0.64131,0.0968 -1.36849,0.051 -1.61598,-0.10202 z m -0.38511,-1.97841 c -0.33922,-0.33922 0.12251,-1.22943 0.63759,-1.22943 0.51514,0 0.97681,0.89021 0.6376,1.22943 -0.11883,0.11882 -0.40573,0.21601 -0.6376,0.21601 -0.23187,0 -0.51878,-0.0972 -0.63759,-0.21601 z m -20.32112,-2.3274 c -1.19249,-0.14795 -3.27537,-0.28666 -4.62864,-0.30823 -2.84657,-0.0453 -2.94237,-0.57306 -0.16413,-0.90408 1.26672,-0.15093 3.02477,0.003 5.26404,0.45916 5.0352,1.027 4.7975,1.40687 -0.47127,0.75315 z"
       id="path4896"
       inkscape:connector-curvature="0" />
  </g>
  <g
     id="g1056"
     inkscape:groupmode="layer"
     inkscape:label="newlayer"
     transform="translate(-0.5,-0.5)" />
</svg>
